# xmcd
#
# Track frame offsets: 
#        150
#        4662
#        15312
#        29709
#        55737
#        71112
#        86561
#        100510
#        125410
#        139210
#        155262
#        171010
#        197861
#        213310
#        232447
#
# Disc length: 3369 seconds
#
# Revision: 0
# Processed by: cddbd v1.5.1PL0 Copyright (c) Steve Scherf et al.
# Submitted via: ExactAudioCopy v0.95b2
#
DISCID=cb0d270f
DTITLE=Sir Douglas Quintet (Doug Sahm) - Zurich, 31 May 1985, 2
DYEAR=1900
DGENRE=
TTITLE0=(Intro)
TTITLE1=Texas Me
TTITLE2=Dynamite Woman
TTITLE3=Together Again
TTITLE4=Dealer's Blues
TTITLE5=Is Anybody Going To San Antone
TTITLE6=Wolly Bully
TTITLE7=96 Tears
TTITLE8=(Band Intro)
TTITLE9=Deep In The Heart Of Texas
TTITLE10=Who Were You Thinking Of
TTITLE11=Mendocino
TTITLE12=Who Will Be The Next In Line
TTITLE13=Adiós México
TTITLE14=Long Tall Sally
EXTD=
EXTT0=
EXTT1=
EXTT2=
EXTT3=
EXTT4=
EXTT5=
EXTT6=
EXTT7=
EXTT8=
EXTT9=
EXTT10=
EXTT11=
EXTT12=
EXTT13=
EXTT14=
PLAYORDER=
